<svg width="512" height="512" viewBox="0 0 512 512" fill="none" xmlns="http://www.w3.org/2000/svg">
  <defs>
    <linearGradient id="bg-gradient" x1="0" y1="0" x2="512" y2="512" gradientUnits="userSpaceOnUse">
      <stop offset="0%" stop-color="#6366f1" />
      <stop offset="100%" stop-color="#3b82f6" />
    </linearGradient>
  </defs>

  <!-- Background Rounded Square with Gradient -->
  <rect width="512" height="512" rx="100" fill="url(#bg-gradient)"/>
  
  <!-- Lens Glass (Inner circle background) -->
  <circle cx="290" cy="220" r="80" fill="white" fill-opacity="0.25"/>

  <!-- P Stem (Magnifying Glass Handle) -->
  <rect x="130" y="100" width="60" height="312" rx="30" fill="white"/>

  <!-- P Bowl (Magnifying Glass Rim) -->
  <!-- Ring centered at 290,220. Radius 90, Stroke 60. -->
  <circle cx="290" cy="220" r="90" stroke="white" stroke-width="60" fill="none"/>
  
  <!-- AI Sparkles (Centered in the lens) -->
  <g fill="white">
     <!-- Main Sparkle -->
     <path d="M290 185 L300 212 L327 220 L300 228 L290 255 L280 228 L253 220 L280 212 Z"/>
     
     <!-- Satellite Sparkle (Top Right) -->
     <path d="M330 175 L334 186 L345 190 L334 194 L330 205 L326 194 L315 190 L326 186 Z" opacity="0.9"/>
     
     <!-- Satellite Sparkle (Bottom Left) -->
     <path d="M250 245 L253 252 L260 255 L253 258 L250 265 L247 258 L240 255 L247 252 Z" opacity="0.8"/>
  </g>
</svg>